# xmcd
#
# Track frame offsets: 
#        150
#        17286
#        34427
#        53475
#        72008
#        87374
#        103959
#        118455
#        136125
#        154426
#
# Disc length: 2226 seconds
#
# Revision: 0
# Processed by: cddbd v1.5.2PL0 Copyright (c) Steve Scherf et al.
# Submitted via: ExactAudioCopy v0.99pb5
#
DISCID=8608b00a
DTITLE=Trevor Alguire - Perish In the Light
DYEAR=2016
DGENRE=Country
TTITLE0=The Ghost Of Him
TTITLE1=Long Way Home
TTITLE2=Out Of Sight/ Out Of Mind
TTITLE3=My Sweet Rosetta
TTITLE4=Flash Flood
TTITLE5=Wasted Ways
TTITLE6=I'll Be Who I Am
TTITLE7=You Don't Write Anymore
TTITLE8=Wasting My Time with You
TTITLE9=If I'd Stayed In School
EXTD=
EXTT0=
EXTT1=
EXTT2=
EXTT3=
EXTT4=
EXTT5=
EXTT6=
EXTT7=
EXTT8=
EXTT9=
PLAYORDER=
